<svg xmlns="http://www.w3.org/2000/svg" width="200" height="53.651" xmlns:v="https://vecta.io/nano"><defs><linearGradient id="A" x1="1" y1=".159" x2=".655" y2="1.039"><stop offset="0" stop-color="#e0aaff"/><stop offset="1" stop-color="#9a24dd"/></linearGradient><linearGradient id="B" x1=".021" y1=".5" x2=".671" y2="1.063"><stop offset="0" stop-color="#0e58ee"/><stop offset="1" stop-color="#6294f9"/></linearGradient><linearGradient id="C" x1="1" y1=".592" x2=".228"><stop offset="0" stop-color="#ff003b"/><stop offset="1" stop-color="#ffcc80"/></linearGradient><linearGradient id="D" x1=".436" y1=".072" x2="0" y2=".696"><stop offset="0" stop-color="#ff4242"/><stop offset="1" stop-color="#fff56d"/></linearGradient></defs><path d="M160.28 31.52a13.41 13.41 0 0 0 2.386 4.131.58.58 0 0 0 .081.114l.72.764.77.718a.4.4 0 0 0 .115.083c1.225 1.046 2.63 1.86 4.147 2.4a14.06 14.06 0 0 0 3.413.771c.036-.02.052 0 .086 0 .042.013.086.018.13.015h.244c.533.035 1.067.035 1.6 0h.25a.35.35 0 0 0 .127-.015c.032 0 .053-.02.083 0 8.2-.492 15.287-5.894 17.934-13.67a19.74 19.74 0 0 0 1.1-6.565C193.448 9.48 184.994.592 174.222.04c.442.016.866.048 1.3.078 1.258.113 2.506.3 3.738.588a3.24 3.24 0 0 1 .574.147c.232.05.474.114.7.18a26.19 26.19 0 0 1 1.719.556c.6.213 1.2.454 1.81.716l1.077.506c.015.02.035.02.05.033.342.16.668.345 1.01.54.312.163.6.343.92.527.085.044.165.096.24.156.328.2.67.427 1 .654h.018c.67.474 1.322.966 1.957 1.49l.07.057.98.87c.257.232.524.47.767.72s.488.506.718.768a12.48 12.48 0 0 1 .639.736c.082.076.158.157.227.244l.064.063a31.23 31.23 0 0 1 1.487 1.963v.02a15.27 15.27 0 0 1 .651.99c.062.078.118.16.167.246.177.313.356.6.52.912.2.344.38.673.543 1.015.016.015.016.035.03.05l.507 1.08c.006.03.018.056.035.08l.016.015c.227.556.457 1.126.67 1.714a22.2 22.2 0 0 1 .556 1.715 13.14 13.14 0 0 1 .18.7c.066.2.1.39.146.566a27.97 27.97 0 0 1 .589 3.741l.082 1.307a25.14 25.14 0 0 1 0 2.091.58.58 0 0 1-.02.18c-.644 10.698-9.504 19.046-20.222 19.054a19.88 19.88 0 0 1-6.562-1.089 20.23 20.23 0 0 1-13.674-17.948 13.7 13.7 0 0 0 .778 3.45z" fill="url(#A)"/><path d="M153.98 26.836c2.655-7.763 9.73-13.16 17.917-13.667-1.165.112-2.312.37-3.412.77a13.37 13.37 0 0 0-4.15 2.4.56.56 0 0 0-.112.087c-.26.225-.52.474-.768.71s-.49.515-.723.775c-.028.027-.06.078-.1.1-.232.274-.46.57-.672.88a13.17 13.17 0 0 0-1.712 3.27 13.93 13.93 0 0 0-.767 3.41c.016.018 0 .05 0 .08-.014.043-.02.087-.018.132-.016.345-.036.7-.036 1.046s.02.7.036 1.045a.38.38 0 0 0 .018.132c0 .012.016.03 0 .063a19.96 19.96 0 0 0 2.989 9.438 20.27 20.27 0 0 0 37.471-9.449c0 .37-.033.75-.064 1.12-.112 1.254-.308 2.498-.59 3.725a4.22 4.22 0 0 1-.147.589c-.048.23-.114.474-.177.705a28.78 28.78 0 0 1-.377 1.206c-.524 1.542-1.185 3.034-1.976 4.457-.084.145-.164.3-.26.44a11.51 11.51 0 0 1-.383.635c-.21.36-.455.74-.7 1.1-.473.665-.964 1.32-1.485 1.96l-.067.062c-.274.326-.568.65-.865.98a13 13 0 0 1-.719.766 19.89 19.89 0 0 1-.769.705l-.735.634c-.1.108-.208.206-.325.294-.312.263-.62.507-.948.754a30.87 30.87 0 0 1-2.01 1.403c-.024-.001-.048.01-.062.03a1.27 1.27 0 0 0-.18.114 27.03 27.03 0 0 1-3.169 1.652c-.374.164-.77.327-1.145.475-1.54.575-3.122 1.023-4.734 1.34q-1.228.22-2.452.326c-.41.036-.817.064-1.227.08a20.11 20.11 0 0 1-2.45 0 1.36 1.36 0 0 1-.244-.016 6.7 6.7 0 0 1-.851-.064 20.23 20.23 0 0 1-14.9-9.455 19.98 19.98 0 0 1-3.059-10.682c-.006-2.236.37-4.457 1.107-6.568z" fill="url(#B)"/><path d="M146.457 24.385c.066-.822.174-1.64.324-2.45l.557-2.384.393-1.3.393-1.063.85-1.972.73-1.423.542-.914.8-1.26 1.485-1.958.067-.07.862-.975.718-.766.77-.722.736-.633a2.19 2.19 0 0 1 .246-.229.82.82 0 0 0 .068-.062l1.96-1.472v-.018l1.09-.7.642-.378c.143-.095.3-.182.442-.26a24.91 24.91 0 0 1 4.459-1.978l1.206-.375.706-.18a3.34 3.34 0 0 1 .585-.143c1.227-.283 2.472-.48 3.726-.59l1.308-.085c.696-.05 1.396-.05 2.092 0a20.22 20.22 0 0 1 16.186 9.553 20.02 20.02 0 0 1 3.059 10.676c.007 2.235-.365 4.455-1.1 6.565-2.652 7.774-9.738 13.174-17.937 13.67 1.166-.113 2.313-.372 3.414-.77 1.518-.54 2.924-1.354 4.15-2.4.04-.025.078-.053.115-.083.262-.228.518-.472.765-.715s.49-.5.72-.77c.03-.036.066-.08.1-.114.233-.28.46-.57.672-.884a13.43 13.43 0 0 0 1.7-3.247c.408-1.11.67-2.27.783-3.447-.02-.033 0-.05 0-.067a.4.4 0 0 0 .016-.127v-.245a12.13 12.13 0 0 0 0-1.6v-.244a.41.41 0 0 0-.015-.133c0-.032-.02-.067 0-.082-.512-8.188-5.91-15.26-13.674-17.91a19.8 19.8 0 0 0-6.567-1.095c-10.613.006-19.424 8.196-20.206 18.78.012-.334.03-.64.065-.96z" fill="url(#C)"/><path d="M146.38 25.337c.79-10.58 9.6-18.766 20.212-18.774a19.86 19.86 0 0 1 6.568 1.09 20.21 20.21 0 0 1 10.66 8.493c1.776 2.84 2.8 6.078 3.007 9.42-.11-1.166-.367-2.314-.77-3.414a13.25 13.25 0 0 0-2.4-4.145c-.024-.042-.053-.08-.087-.115-.23-.262-.472-.524-.716-.77s-.507-.49-.77-.718c-.03-.03-.062-.05-.095-.083-1.238-1.037-2.65-1.85-4.167-2.4-1.102-.396-2.25-.655-3.414-.77-.03.02-.05 0-.083 0a.69.69 0 0 0-.127-.01c-.344-.02-.706-.03-1.045-.03a19.39 19.39 0 0 0-1.048.031.76.76 0 0 0-.133.01c-.032 0-.047.02-.082 0-10.478.657-18.72 9.205-18.996 19.7s7.507 19.464 17.936 20.67c-.044.01-.09.01-.133 0a26.1 26.1 0 0 1-2.444-.328 29.41 29.41 0 0 1-4.744-1.335l-1.142-.477c-.036-.02-.05-.032-.065-.032a28.66 28.66 0 0 1-3.1-1.618c-.06-.04-.12-.078-.184-.112-.013-.024-.038-.038-.065-.036a28.6 28.6 0 0 1-3.037-2.215c-.33-.28-.654-.578-.98-.87-.26-.226-.524-.474-.77-.7s-.468-.506-.718-.766a11.16 11.16 0 0 1-.634-.735c-.083-.075-.16-.158-.23-.246l-.068-.06c-.524-.64-1.013-1.293-1.485-1.968-.278-.418-.556-.827-.8-1.254-.194-.3-.378-.6-.54-.915-.256-.474-.51-.945-.735-1.422a28.66 28.66 0 0 1-.851-1.97l-.39-1.065a20.51 20.51 0 0 1-.393-1.287c-.214-.79-.413-1.584-.557-2.383-.146-.818-.262-1.636-.326-2.452-.032-.41-.067-.815-.08-1.222-.054-.817-.054-1.638 0-2.455-.01-.088-.004-.177.018-.262z" fill="url(#D)"/><g fill="#111441"><path d="M128.702 37.34a10.08 10.08 0 0 1-8.381-4.475 10.07 10.07 0 0 1-1.7-5.6A10.08 10.08 0 0 1 128.7 17.189a10.08 10.08 0 0 1 10.077 10.078A10.08 10.08 0 0 1 128.7 37.345zm0-14.227a4.07 4.07 0 0 0-1.885.451 4.19 4.19 0 0 0-1.574 1.4 3.99 3.99 0 0 0-.578 1.33c-.077.317-.116.64-.115.967a4.14 4.14 0 0 0 .157 1.136c.116.415.297.808.537 1.166a4.18 4.18 0 0 0 1.563 1.393c.586.303 1.236.46 1.895.457a4.15 4.15 0 0 0 0-8.3z"/><path d="M114.28 31.368h14.444v5.916H114.28z"/><path d="M114.644 37.275h0a9.52 9.52 0 0 1-9.52-9.521v-17.4c0-.015.006-.03.016-.04s.025-.016.04-.016h5.805c.015 0 .03.006.04.016s.016.025.016.04v17.4c0 1.99 1.61 3.602 3.6 3.605h0c.03.001.055.025.055.056v5.8c.001.015-.004.03-.014.04s-.024.018-.038.02z"/><path d="M101.575 37.3h-9.242v-5.916h9.242a3.56 3.56 0 0 0 3.55-3.55v-21.5h5.915v21.512a9.48 9.48 0 0 1-9.464 9.465zM92.333 6.336h5.985v20.488h-5.985zM78.64 37.444H68.383c-5.225-.006-9.46-4.24-9.465-9.464v-2.64h5.916v2.64c.003 1.96 1.6 3.546 3.55 3.548H78.64c1.96-.002 3.547-1.6 3.55-3.548v-4.746h5.916v4.746c-.006 5.225-4.24 9.46-9.466 9.464z"/><path d="M55.377 37.412h-11.1a9.49 9.49 0 0 1-9.477-9.477v-4.79h5.924v4.79a3.56 3.56 0 0 0 3.554 3.554h11.1a3.56 3.56 0 0 0 3.554-3.554v-6.53l5.924-2.37v8.9a9.49 9.49 0 0 1-9.479 9.475z"/><circle cx="74.72" cy="43.917" r="3.291"/><circle cx="81.636" cy="43.917" r="3.291"/><circle cx="26.887" cy="43.917" r="3.291"/><circle cx="33.803" cy="43.917" r="3.291"/><circle cx="46.375" cy="11.08" r="3.291"/><circle cx="53.243" cy="11.08" r="3.291"/><circle cx="128.63" cy="11.08" r="3.291"/><path d="M10 37.49A10.05 10.05 0 0 1 .004 27.409a10.05 10.05 0 0 1 10.064-10.014A10.05 10.05 0 0 1 20.1 27.441v4.14h11.188a3.55 3.55 0 0 0 3.547-3.546v-2.636h5.91v2.636a9.47 9.47 0 0 1-9.457 9.457h-12.3m-8.937-5.912h4.136v-4.14a4.14 4.14 0 0 0-4.136-4.136c-.653-.003-1.297.152-1.878.45a4.18 4.18 0 0 0-1.569 1.4 3.98 3.98 0 0 0-.576 1.327l-.008.034a3.93 3.93 0 0 0-.106.928 4.14 4.14 0 0 0 .157 1.133c.115.413.296.806.535 1.162a4.17 4.17 0 0 0 1.559 1.389 4.06 4.06 0 0 0 1.888.456z"/><path d="M10.017 46.1v-5.9a4.17 4.17 0 0 0 4.167-4.167v-7.227h5.9v7.227a10.08 10.08 0 0 1-10.067 10.067z"/><path d="M5.486 40.2h4.532v5.9H5.486z"/></g></svg>